<svg xmlns="http://www.w3.org/2000/svg" viewBox="0 0 40 40" width="40" height="40" role="img" aria-label="Daisy logomark">
  <defs>
    <radialGradient id="petal" cx="50%" cy="30%" r="70%">
      <stop offset="0%" stop-color="#ffffff"/>
      <stop offset="85%" stop-color="#faf6ee"/>
      <stop offset="100%" stop-color="#ead8e6"/>
    </radialGradient>
    <radialGradient id="heart" cx="35%" cy="35%" r="70%">
      <stop offset="0%" stop-color="#f2cf91"/>
      <stop offset="70%" stop-color="#d89a4f"/>
      <stop offset="100%" stop-color="#a36d2d"/>
    </radialGradient>
  </defs>
  <g transform="translate(20 20)" stroke="#6a8a5f" stroke-width="0.5" stroke-opacity="0.55">
    <g fill="url(#petal)">
      <ellipse cx="0" cy="-10.5" rx="2.6" ry="6.2"/>
      <ellipse cx="0" cy="-10.5" rx="2.6" ry="6.2" transform="rotate(30)"/>
      <ellipse cx="0" cy="-10.5" rx="2.6" ry="6.2" transform="rotate(60)"/>
      <ellipse cx="0" cy="-10.5" rx="2.6" ry="6.2" transform="rotate(90)"/>
      <ellipse cx="0" cy="-10.5" rx="2.6" ry="6.2" transform="rotate(120)"/>
      <ellipse cx="0" cy="-10.5" rx="2.6" ry="6.2" transform="rotate(150)"/>
      <ellipse cx="0" cy="-10.5" rx="2.6" ry="6.2" transform="rotate(180)"/>
      <ellipse cx="0" cy="-10.5" rx="2.6" ry="6.2" transform="rotate(210)"/>
      <ellipse cx="0" cy="-10.5" rx="2.6" ry="6.2" transform="rotate(240)"/>
      <ellipse cx="0" cy="-10.5" rx="2.6" ry="6.2" transform="rotate(270)"/>
      <ellipse cx="0" cy="-10.5" rx="2.6" ry="6.2" transform="rotate(300)"/>
      <ellipse cx="0" cy="-10.5" rx="2.6" ry="6.2" transform="rotate(330)"/>
    </g>
  </g>
  <circle cx="20" cy="20" r="3.4" fill="url(#heart)" stroke="#8a5a1f" stroke-width="0.4" stroke-opacity="0.5"/>
</svg>
