<svg xmlns="http://www.w3.org/2000/svg" viewBox="0 0 1600 320" preserveAspectRatio="xMidYEnd slice">
  <style>
    @keyframes sway-far  { 0%,100% { transform: rotate(-0.6deg); } 50% { transform: rotate(0.6deg); } }
    @keyframes sway-mid  { 0%,100% { transform: rotate(-1.1deg); } 50% { transform: rotate(1.1deg); } }
    @keyframes sway-near { 0%,100% { transform: rotate(-1.6deg); } 50% { transform: rotate(1.6deg); } }
    @keyframes sway-tall { 0%,100% { transform: rotate(-2.1deg); } 50% { transform: rotate(2.1deg); } }
    .m-far     { transform-origin: 50% 100%; animation: sway-far   9.2s ease-in-out infinite; }
    .m-mid     { transform-origin: 50% 100%; animation: sway-mid   6.7s ease-in-out infinite; }
    .m-near    { transform-origin: 50% 100%; animation: sway-near  4.8s ease-in-out infinite; }
    .m-tall    { transform-origin: 50% 100%; animation: sway-tall  5.6s ease-in-out infinite; }
    @media (prefers-reduced-motion: reduce) {
      .m-far, .m-mid, .m-near, .m-tall { animation: none; }
    }
  </style>
  <defs>
    <linearGradient id="grass-far" x1="0%" y1="0%" x2="0%" y2="100%">
      <stop offset="0%" stop-color="#8ea080" stop-opacity="0.55"/>
      <stop offset="100%" stop-color="#6a8a5f" stop-opacity="0.75"/>
    </linearGradient>
    <linearGradient id="grass-mid" x1="0%" y1="0%" x2="0%" y2="100%">
      <stop offset="0%" stop-color="#6a8a5f" stop-opacity="0.7"/>
      <stop offset="100%" stop-color="#3e5a37" stop-opacity="0.92"/>
    </linearGradient>
    <linearGradient id="grass-near" x1="0%" y1="0%" x2="0%" y2="100%">
      <stop offset="0%" stop-color="#3e5a37" stop-opacity="0.92"/>
      <stop offset="100%" stop-color="#2b3a2a" stop-opacity="1"/>
    </linearGradient>
    <linearGradient id="seed-plume" x1="0%" y1="0%" x2="0%" y2="100%">
      <stop offset="0%" stop-color="#c4a670" stop-opacity="0.85"/>
      <stop offset="100%" stop-color="#8a6a3a" stop-opacity="0.95"/>
    </linearGradient>

    <!-- Blade variants (all drawn as if growing upward from origin 0,0) -->
    <!-- straight blade -->
    <path id="blade-s" d="M 0 0 Q -0.8 -70, -0.5 -140 Q 0 -180 0 -200 L 1.5 -200 Q 2 -180 1.5 -140 Q 2 -70 2 0 Z"/>
    <!-- curved left -->
    <path id="blade-l" d="M 0 0 Q -3 -60, -7 -120 Q -11 -170 -14 -200 L -12 -200 Q -9 -170 -5 -120 Q -1 -60 2 0 Z"/>
    <!-- curved right -->
    <path id="blade-r" d="M 0 0 Q 3 -60, 7 -120 Q 11 -170 14 -200 L 12 -200 Q 9 -170 5 -120 Q 1 -60 -2 0 Z"/>
    <!-- chunky blade (wider, for foreground) -->
    <path id="blade-c" d="M 0 0 Q -2 -60, -3 -130 Q -4 -180 -3 -200 L 3 -200 Q 4 -180 3 -130 Q 2 -60 2 0 Z"/>

    <!-- Wheat-style seed head -->
    <g id="seed-wheat">
      <path d="M 0 0 L 0 -46" stroke="#8a6a3a" stroke-width="0.6" fill="none"/>
      <ellipse cx="-2" cy="-6" rx="1.8" ry="4" fill="url(#seed-plume)" transform="rotate(-20 -2 -6)"/>
      <ellipse cx="2" cy="-10" rx="1.8" ry="4" fill="url(#seed-plume)" transform="rotate(20 2 -10)"/>
      <ellipse cx="-2" cy="-16" rx="1.8" ry="4.5" fill="url(#seed-plume)" transform="rotate(-20 -2 -16)"/>
      <ellipse cx="2" cy="-20" rx="1.8" ry="4.5" fill="url(#seed-plume)" transform="rotate(20 2 -20)"/>
      <ellipse cx="-2" cy="-26" rx="1.8" ry="5" fill="url(#seed-plume)" transform="rotate(-20 -2 -26)"/>
      <ellipse cx="2" cy="-30" rx="1.8" ry="5" fill="url(#seed-plume)" transform="rotate(20 2 -30)"/>
      <ellipse cx="0" cy="-40" rx="1.6" ry="4.5" fill="url(#seed-plume)"/>
    </g>

    <!-- Feathery plume (pampas-style) -->
    <g id="seed-plume-fx">
      <path d="M 0 0 L 0 -60" stroke="#8a6a3a" stroke-width="0.7" fill="none"/>
      <path d="M 0 -8 Q -9 -20, -12 -38 Q -10 -42, -2 -28 Q 0 -22, 0 -10 Z" fill="url(#seed-plume)" opacity="0.75"/>
      <path d="M 0 -8 Q 9 -20, 12 -38 Q 10 -42, 2 -28 Q 0 -22, 0 -10 Z" fill="url(#seed-plume)" opacity="0.75"/>
      <path d="M 0 -18 Q -7 -34, -9 -52 Q -7 -58, -1 -42 Q 0 -34, 0 -20 Z" fill="url(#seed-plume)" opacity="0.85"/>
      <path d="M 0 -18 Q 7 -34, 9 -52 Q 7 -58, 1 -42 Q 0 -34, 0 -20 Z" fill="url(#seed-plume)" opacity="0.85"/>
      <ellipse cx="0" cy="-30" rx="2" ry="22" fill="url(#seed-plume)"/>
    </g>

    <!-- Ball seed (Timothy grass) -->
    <g id="seed-ball">
      <path d="M 0 0 L 0 -38" stroke="#8a6a3a" stroke-width="0.6" fill="none"/>
      <ellipse cx="0" cy="-44" rx="3" ry="9" fill="url(#seed-plume)"/>
    </g>
  </defs>

  <!-- FAR layer: short, sparse, low contrast -->
  <g class="m-far" fill="url(#grass-far)">
    <use href="#blade-s" transform="translate(22 320) scale(0.5 0.45)"/>
    <use href="#blade-l" transform="translate(58 320) scale(0.6 0.55)"/>
    <use href="#blade-s" transform="translate(96 320) scale(0.55 0.4)"/>
    <use href="#blade-r" transform="translate(144 320) scale(0.7 0.6)"/>
    <use href="#blade-s" transform="translate(188 320) scale(0.5 0.38)"/>
    <use href="#blade-l" transform="translate(236 320) scale(0.65 0.5)"/>
    <use href="#blade-s" transform="translate(278 320) scale(0.6 0.45)"/>
    <use href="#blade-r" transform="translate(324 320) scale(0.55 0.55)"/>
    <use href="#blade-s" transform="translate(376 320) scale(0.5 0.4)"/>
    <use href="#blade-l" transform="translate(420 320) scale(0.7 0.65)"/>
    <use href="#blade-s" transform="translate(466 320) scale(0.55 0.5)"/>
    <use href="#blade-r" transform="translate(508 320) scale(0.6 0.42)"/>
    <use href="#blade-s" transform="translate(554 320) scale(0.5 0.55)"/>
    <use href="#blade-l" transform="translate(600 320) scale(0.65 0.48)"/>
    <use href="#blade-s" transform="translate(648 320) scale(0.6 0.6)"/>
    <use href="#blade-r" transform="translate(696 320) scale(0.55 0.45)"/>
    <use href="#blade-s" transform="translate(740 320) scale(0.7 0.4)"/>
    <use href="#blade-l" transform="translate(788 320) scale(0.5 0.55)"/>
    <use href="#blade-s" transform="translate(830 320) scale(0.6 0.5)"/>
    <use href="#blade-r" transform="translate(878 320) scale(0.65 0.62)"/>
    <use href="#blade-s" transform="translate(922 320) scale(0.55 0.4)"/>
    <use href="#blade-l" transform="translate(968 320) scale(0.5 0.55)"/>
    <use href="#blade-s" transform="translate(1014 320) scale(0.7 0.5)"/>
    <use href="#blade-r" transform="translate(1058 320) scale(0.6 0.42)"/>
    <use href="#blade-s" transform="translate(1104 320) scale(0.55 0.58)"/>
    <use href="#blade-l" transform="translate(1152 320) scale(0.65 0.45)"/>
    <use href="#blade-s" transform="translate(1196 320) scale(0.5 0.5)"/>
    <use href="#blade-r" transform="translate(1244 320) scale(0.6 0.6)"/>
    <use href="#blade-s" transform="translate(1288 320) scale(0.55 0.4)"/>
    <use href="#blade-l" transform="translate(1336 320) scale(0.7 0.55)"/>
    <use href="#blade-s" transform="translate(1380 320) scale(0.5 0.48)"/>
    <use href="#blade-r" transform="translate(1428 320) scale(0.65 0.42)"/>
    <use href="#blade-s" transform="translate(1472 320) scale(0.55 0.55)"/>
    <use href="#blade-l" transform="translate(1520 320) scale(0.6 0.5)"/>
    <use href="#blade-s" transform="translate(1568 320) scale(0.55 0.45)"/>
  </g>

  <!-- MID layer: medium, varied heights, some seed heads -->
  <g class="m-mid">
    <g fill="url(#grass-mid)">
      <use href="#blade-l" transform="translate(44 320) scale(0.9 0.75)"/>
      <use href="#blade-s" transform="translate(82 320) scale(1 1.1)"/>
      <use href="#blade-r" transform="translate(128 320) scale(1.1 0.85)"/>
      <use href="#blade-s" transform="translate(176 320) scale(0.8 1.25)"/>
      <use href="#blade-l" transform="translate(222 320) scale(1 0.9)"/>
      <use href="#blade-s" transform="translate(268 320) scale(1.1 1.35)"/>
      <use href="#blade-r" transform="translate(318 320) scale(0.9 0.7)"/>
      <use href="#blade-s" transform="translate(366 320) scale(1 1.05)"/>
      <use href="#blade-l" transform="translate(412 320) scale(1.1 1.25)"/>
      <use href="#blade-s" transform="translate(454 320) scale(0.85 0.8)"/>
      <use href="#blade-r" transform="translate(498 320) scale(1.2 1.4)"/>
      <use href="#blade-s" transform="translate(546 320) scale(0.9 0.85)"/>
      <use href="#blade-l" transform="translate(594 320) scale(1.1 1.2)"/>
      <use href="#blade-s" transform="translate(642 320) scale(1 0.9)"/>
      <use href="#blade-r" transform="translate(688 320) scale(0.8 1.35)"/>
      <use href="#blade-s" transform="translate(734 320) scale(1.1 0.75)"/>
      <use href="#blade-l" transform="translate(782 320) scale(0.9 1.25)"/>
      <use href="#blade-s" transform="translate(828 320) scale(1.2 1)"/>
      <use href="#blade-r" transform="translate(876 320) scale(1 0.85)"/>
      <use href="#blade-s" transform="translate(922 320) scale(0.9 1.3)"/>
      <use href="#blade-l" transform="translate(968 320) scale(1.1 0.8)"/>
      <use href="#blade-s" transform="translate(1014 320) scale(0.85 1.15)"/>
      <use href="#blade-r" transform="translate(1062 320) scale(1 1.4)"/>
      <use href="#blade-s" transform="translate(1106 320) scale(1.1 0.9)"/>
      <use href="#blade-l" transform="translate(1152 320) scale(0.9 1.25)"/>
      <use href="#blade-s" transform="translate(1198 320) scale(1 0.8)"/>
      <use href="#blade-r" transform="translate(1246 320) scale(1.2 1.35)"/>
      <use href="#blade-s" transform="translate(1290 320) scale(0.85 1)"/>
      <use href="#blade-l" transform="translate(1336 320) scale(1 1.2)"/>
      <use href="#blade-s" transform="translate(1382 320) scale(1.1 0.85)"/>
      <use href="#blade-r" transform="translate(1428 320) scale(0.9 1.3)"/>
      <use href="#blade-s" transform="translate(1476 320) scale(1 0.9)"/>
      <use href="#blade-l" transform="translate(1522 320) scale(1.1 1.15)"/>
    </g>
    <!-- Seed heads on mid -->
    <g>
      <use href="#seed-ball"    transform="translate(176 320) scale(1.4)"/>
      <use href="#seed-wheat"   transform="translate(412 320) scale(1.3)"/>
      <use href="#seed-ball"    transform="translate(642 320) scale(1.2)"/>
      <use href="#seed-wheat"   transform="translate(876 320) scale(1.4)"/>
      <use href="#seed-ball"    transform="translate(1106 320) scale(1.3)"/>
      <use href="#seed-wheat"   transform="translate(1336 320) scale(1.25)"/>
    </g>
  </g>

  <!-- TALL layer: feathery plumes standing above the rest -->
  <g class="m-tall">
    <g fill="url(#grass-near)">
      <use href="#blade-s" transform="translate(120 320) scale(1.1 1.8)"/>
      <use href="#blade-l" transform="translate(340 320) scale(1.2 1.9)"/>
      <use href="#blade-r" transform="translate(560 320) scale(1.3 1.75)"/>
      <use href="#blade-s" transform="translate(780 320) scale(1.2 2)"/>
      <use href="#blade-l" transform="translate(1000 320) scale(1.3 1.85)"/>
      <use href="#blade-r" transform="translate(1220 320) scale(1.2 1.95)"/>
      <use href="#blade-s" transform="translate(1440 320) scale(1.3 1.8)"/>
    </g>
    <g>
      <use href="#seed-plume-fx" transform="translate(120 320) scale(1.8)"/>
      <use href="#seed-plume-fx" transform="translate(340 320) scale(1.7)"/>
      <use href="#seed-plume-fx" transform="translate(560 320) scale(1.9)"/>
      <use href="#seed-plume-fx" transform="translate(780 320) scale(1.8)"/>
      <use href="#seed-plume-fx" transform="translate(1000 320) scale(1.7)"/>
      <use href="#seed-plume-fx" transform="translate(1220 320) scale(1.85)"/>
      <use href="#seed-plume-fx" transform="translate(1440 320) scale(1.75)"/>
    </g>
  </g>

  <!-- NEAR layer: chunky foreground blades, varied heights -->
  <g class="m-near" fill="url(#grass-near)">
    <use href="#blade-c" transform="translate(30 320) scale(1.3 1.1)"/>
    <use href="#blade-s" transform="translate(74 320) scale(1.4 0.9)"/>
    <use href="#blade-l" transform="translate(118 320) scale(1.2 1.4)"/>
    <use href="#blade-c" transform="translate(170 320) scale(1.5 1)"/>
    <use href="#blade-r" transform="translate(218 320) scale(1.3 1.2)"/>
    <use href="#blade-s" transform="translate(262 320) scale(1.4 0.85)"/>
    <use href="#blade-c" transform="translate(310 320) scale(1.3 1.3)"/>
    <use href="#blade-l" transform="translate(358 320) scale(1.5 1.1)"/>
    <use href="#blade-s" transform="translate(406 320) scale(1.2 1.45)"/>
    <use href="#blade-c" transform="translate(454 320) scale(1.4 0.95)"/>
    <use href="#blade-r" transform="translate(502 320) scale(1.3 1.25)"/>
    <use href="#blade-s" transform="translate(550 320) scale(1.5 1)"/>
    <use href="#blade-c" transform="translate(598 320) scale(1.3 1.4)"/>
    <use href="#blade-l" transform="translate(646 320) scale(1.4 0.9)"/>
    <use href="#blade-s" transform="translate(694 320) scale(1.2 1.2)"/>
    <use href="#blade-c" transform="translate(742 320) scale(1.5 1.05)"/>
    <use href="#blade-r" transform="translate(790 320) scale(1.3 1.4)"/>
    <use href="#blade-s" transform="translate(838 320) scale(1.4 0.95)"/>
    <use href="#blade-c" transform="translate(886 320) scale(1.2 1.3)"/>
    <use href="#blade-l" transform="translate(934 320) scale(1.5 1.1)"/>
    <use href="#blade-s" transform="translate(982 320) scale(1.3 1.4)"/>
    <use href="#blade-c" transform="translate(1030 320) scale(1.4 0.9)"/>
    <use href="#blade-r" transform="translate(1078 320) scale(1.5 1.2)"/>
    <use href="#blade-s" transform="translate(1126 320) scale(1.3 1.05)"/>
    <use href="#blade-c" transform="translate(1174 320) scale(1.4 1.35)"/>
    <use href="#blade-l" transform="translate(1222 320) scale(1.2 0.95)"/>
    <use href="#blade-s" transform="translate(1270 320) scale(1.5 1.15)"/>
    <use href="#blade-c" transform="translate(1318 320) scale(1.3 1.4)"/>
    <use href="#blade-r" transform="translate(1366 320) scale(1.4 0.9)"/>
    <use href="#blade-s" transform="translate(1414 320) scale(1.2 1.25)"/>
    <use href="#blade-c" transform="translate(1462 320) scale(1.5 1.05)"/>
    <use href="#blade-l" transform="translate(1510 320) scale(1.3 1.3)"/>
    <use href="#blade-c" transform="translate(1558 320) scale(1.4 0.95)"/>
  </g>
</svg>
